<svg width="516" height="375" viewBox="0 0 516 375" fill="none" xmlns="http://www.w3.org/2000/svg">
<path d="M485.135 274.093L301.389 87.9408L40.1098 100.126L223.856 286.278L485.135 274.093Z" stroke="white"/>
<path d="M491.166 258.365L301.394 87.9283L46.3441 84.477L231.267 267.318L491.166 258.365Z" stroke="white"/>
<path d="M496.16 244.989L301.397 87.9193L51.7456 71.2604L242.431 238.761L496.16 244.989Z" stroke="white"/>
<path d="M500.429 233.313L301.4 87.9126L56.5272 59.7853L252.15 213.898L500.429 233.313Z" stroke="white"/>
<path d="M505.355 219.275L301.403 87.906L62.4282 46.1277L263.779 184.152L505.355 219.275Z" stroke="white"/>
<path d="M508.859 208.405L301.404 87.9022L67.2241 35.7631L272.694 161.345L508.859 208.405Z" stroke="white"/>
<path d="M512.079 195.828L301.405 87.899L73.3884 24.3369L282.773 135.562L512.079 195.828Z" stroke="white"/>
</svg>
